<svg width="122" height="26" viewBox="0 0 122 26" fill="none" xmlns="http://www.w3.org/2000/svg">
<path d="M0 25.5556V0.773438H14.628V4.64784H4.62502V11.6636H13.0505V15.538H4.62502V25.5556H0Z" fill="#FAFBFC"/>
<path d="M16.2397 16.655C16.2397 13.9092 17.1002 11.6753 18.8211 9.95332C20.5659 8.20809 22.8127 7.33548 25.5614 7.33548C28.095 7.33548 30.0789 8.13829 31.513 9.74389C32.9471 11.3262 33.6642 13.3391 33.6642 15.7824C33.6642 16.178 33.6164 16.7481 33.5208 17.4927H20.9364C21.0798 18.9819 21.6654 20.1454 22.6932 20.9831C23.721 21.7976 24.9639 22.2048 26.4219 22.2048C28.2385 22.2048 29.9833 21.5532 31.6564 20.2501L33.4491 23.4265C32.5408 24.2176 31.4174 24.8459 30.0789 25.3113C28.7643 25.7534 27.4377 25.9745 26.0992 25.9745C23.1593 25.9745 20.7811 25.0786 18.9645 23.2868C17.148 21.4718 16.2397 19.2612 16.2397 16.655ZM21.044 14.456H29.1109C29.087 13.2925 28.7284 12.3734 28.0353 11.6985C27.366 11.0237 26.5056 10.6863 25.4539 10.6863C24.3066 10.6863 23.3386 11.0354 22.5498 11.7334C21.761 12.4083 21.2591 13.3158 21.044 14.456Z" fill="#FAFBFC"/>
<path d="M37.4484 25.5556V0.773438H42.0017V8.48733L41.8941 9.98822H41.9658C42.4917 9.19705 43.2565 8.55714 44.2604 8.06848C45.2882 7.57981 46.3638 7.33548 47.4872 7.33548C49.9491 7.33548 51.909 8.19646 53.367 9.91841C54.849 11.6404 55.5899 13.8859 55.5899 16.655C55.5899 19.4473 54.8012 21.7045 53.2236 23.4265C51.67 25.1251 49.6622 25.9745 47.2003 25.9745C46.1009 25.9745 45.0492 25.7301 44.0453 25.2415C43.0414 24.7528 42.2526 24.078 41.679 23.217H41.6073C41.6551 23.5428 41.679 23.9384 41.679 24.4038V25.5556H37.4484ZM41.8583 16.7597C41.8583 18.249 42.2526 19.5404 43.0414 20.6341C43.8541 21.7045 44.9775 22.2397 46.4116 22.2397C47.7262 22.2397 48.8137 21.751 49.6742 20.7737C50.5586 19.7731 51.0007 18.4235 51.0007 16.7248C51.0007 15.0494 50.5825 13.6997 49.7459 12.6759C48.9093 11.652 47.8218 11.1401 46.4833 11.1401C45.1687 11.1401 44.0692 11.6171 43.1848 12.5712C42.3004 13.5019 41.8583 14.8981 41.8583 16.7597Z" fill="#FAFBFC"/>
<path d="M59.4713 25.5556V0.773438H64.0246V8.48733L63.917 9.98822H63.9887C64.5146 9.19705 65.2794 8.55714 66.2833 8.06848C67.3111 7.57981 68.3867 7.33548 69.5101 7.33548C71.972 7.33548 73.9319 8.19646 75.39 9.91841C76.8719 11.6404 77.6128 13.8859 77.6128 16.655C77.6128 19.4473 76.8241 21.7045 75.2465 23.4265C73.6929 25.1251 71.6852 25.9745 69.2233 25.9745C68.1238 25.9745 67.0721 25.7301 66.0682 25.2415C65.0643 24.7528 64.2756 24.078 63.7019 23.217H63.6302C63.678 23.5428 63.7019 23.9384 63.7019 24.4038V25.5556H59.4713ZM63.8812 16.7597C63.8812 18.249 64.2756 19.5404 65.0643 20.6341C65.877 21.7045 67.0004 22.2397 68.4345 22.2397C69.7491 22.2397 70.8366 21.751 71.6971 20.7737C72.5815 19.7731 73.0237 18.4235 73.0237 16.7248C73.0237 15.0494 72.6054 13.6997 71.7688 12.6759C70.9322 11.652 69.8447 11.1401 68.5062 11.1401C67.1916 11.1401 66.0921 11.6171 65.2077 12.5712C64.3234 13.5019 63.8812 14.8981 63.8812 16.7597Z" fill="#FAFBFC"/>
<path d="M80.3828 16.655C80.3828 13.9092 81.2432 11.6753 82.9642 9.95332C84.709 8.20809 86.9558 7.33548 89.7045 7.33548C92.2381 7.33548 94.222 8.13829 95.6561 9.74389C97.0902 11.3262 97.8073 13.3391 97.8073 15.7824C97.8073 16.178 97.7595 16.7481 97.6639 17.4927H85.0795C85.2229 18.9819 85.8085 20.1454 86.8363 20.9831C87.8641 21.7976 89.107 22.2048 90.565 22.2048C92.3815 22.2048 94.1264 21.5532 95.7995 20.2501L97.5922 23.4265C96.6839 24.2176 95.5605 24.8459 94.222 25.3113C92.9074 25.7534 91.5808 25.9745 90.2423 25.9745C87.3024 25.9745 84.9241 25.0786 83.1076 23.2868C81.291 21.4718 80.3828 19.2612 80.3828 16.655ZM85.187 14.456H93.254C93.2301 13.2925 92.8715 12.3734 92.1784 11.6985C91.5091 11.0237 90.6486 10.6863 89.597 10.6863C88.4497 10.6863 87.4816 11.0354 86.6929 11.7334C85.9041 12.4083 85.4022 13.3158 85.187 14.456Z" fill="#FAFBFC"/>
<path d="M101.591 25.5556V7.75434H105.965V10.8957L105.894 12.1174H105.965C106.396 10.8143 107.137 9.72062 108.188 8.83637C109.24 7.95213 110.435 7.51 111.774 7.51C111.965 7.51 112.252 7.53327 112.634 7.57981V11.9429C112.395 11.8963 112.025 11.8731 111.523 11.8731C109.754 11.8731 108.415 12.5013 107.507 13.7579C106.599 15.0145 106.145 16.5503 106.145 18.3653V25.5556H101.591Z" fill="#FAFBFC"/>
<path d="M118.34 25.7601C117.558 25.7601 116.893 25.4931 116.345 24.9591C115.796 24.4251 115.522 23.7775 115.522 23.0162C115.522 22.2436 115.796 21.5959 116.345 21.0733C116.893 20.5392 117.558 20.2722 118.34 20.2722C119.134 20.2722 119.799 20.5392 120.336 21.0733C120.885 21.5959 121.159 22.2436 121.159 23.0162C121.159 23.7775 120.885 24.4251 120.336 24.9591C119.788 25.4931 119.122 25.7601 118.34 25.7601Z" fill="#FAFBFC"/>
</svg>
