<svg width="170" height="44" viewBox="0 0 170 44" fill="none" xmlns="http://www.w3.org/2000/svg">
<path d="M0 0.526802H20.1434V5.9266H5.77359V11.4581H18.3472V16.8579H5.77359V22.5211H20.2717V27.9209H0V0.526802Z" fill="#4D4D4F"/>
<path d="M62.2264 16.1994V0.526802H68.1283V15.936C68.1283 20.4139 70.3095 22.6528 73.9019 22.6528C77.4944 22.6528 79.6755 20.4139 79.6755 16.0677V0.526802H85.5774V15.936C85.5774 24.2332 81.0868 28.316 73.9019 28.316C66.5887 28.316 62.2264 24.2332 62.2264 16.1994Z" fill="#4D4D4F"/>
<path d="M101.359 0.526802H95.4567V27.9209H101.359V0.526802Z" fill="#4D4D4F"/>
<path d="M111.109 16.1994V0.526802H117.011V15.936C117.011 20.4139 119.192 22.6528 122.785 22.6528C126.377 22.6528 128.559 20.4139 128.559 16.0677V0.526802H134.46V15.936C134.46 24.2332 129.97 28.316 122.785 28.316C115.472 28.316 111.109 24.2332 111.109 16.1994Z" fill="#4D4D4F"/>
<path d="M143.313 0.526802H149.728L156.657 12.1166L163.713 0.526802H170V27.9209H164.226V10.0094L156.657 21.7309H156.528L149.087 10.1411V27.9209H143.313V0.526802Z" fill="#4D4D4F"/>
<path d="M55.5547 29.7647L49.1396 23.1796C49.0113 23.0479 49.0113 22.7845 49.1396 22.6528C49.2679 22.5211 49.5245 22.5211 49.6528 22.6528L56.0679 29.2379C56.0679 27.6575 55.683 22.7845 52.6038 19.6237C49.2679 16.1994 44.0076 16.0677 42.8528 16.0677C42.7245 16.0677 42.5962 16.0677 42.5962 16.0677C42.5962 16.0677 42.4679 22.3894 46.1887 26.2088C49.2679 29.3696 54.0151 29.7647 55.5547 29.7647Z" fill="#4D4D4F"/>
<path d="M45.6755 26.7356C44.7774 25.8137 44.0076 24.6283 43.4944 23.5747C42.7246 23.8381 41.9548 23.9698 41.0567 23.9698C35.9246 23.9698 31.8189 19.7554 31.8189 14.619C31.8189 9.48257 35.9246 5.2681 41.0567 5.2681C46.1888 5.2681 50.2944 9.48257 50.2944 14.619C50.2944 15.4092 50.1661 16.3311 49.9095 16.9896C50.9359 17.5164 52.0906 18.1749 52.9888 19.0968C53.3737 19.492 53.7586 20.0188 54.1435 20.5456C55.0416 18.7017 55.4265 16.7262 55.4265 14.4873C55.4265 6.45342 49.0114 0 41.0567 0C33.102 0 26.6869 6.45342 26.6869 14.4873C26.6869 22.5211 33.102 28.9745 41.0567 28.9745C43.1095 28.9745 45.034 28.4477 46.8303 27.7892C46.4454 27.3941 46.0605 27.1307 45.6755 26.7356Z" fill="#4D4D4F"/>
<path d="M69.3456 42.6442L70.51 41.2885C71.2863 41.9048 72.0625 42.1513 72.9682 42.1513C73.4856 42.1513 73.8738 41.9048 73.8738 41.6583C73.8738 41.4118 73.6151 41.1653 72.58 40.9188C70.8981 40.549 69.7338 40.1793 69.7338 38.577C69.7338 37.2213 70.8981 36.2353 72.7094 36.2353C74.0031 36.2353 75.0382 36.605 75.8144 37.2213L74.7794 38.577C74.1325 38.084 73.3562 37.8375 72.7094 37.8375C72.1918 37.8375 71.9331 38.084 71.9331 38.3305C71.9331 38.7003 72.1918 38.8235 73.2269 39.07C75.0382 39.4398 76.0731 39.9328 76.0731 41.2885C76.0731 42.7675 74.9089 43.6302 72.9682 43.6302C71.5449 43.7535 70.3807 43.3837 69.3456 42.6442Z" fill="#4D4D4F"/>
<path fill-rule="evenodd" clip-rule="evenodd" d="M40.236 36.3585H38.1661L35.061 43.6303H37.2603L37.7779 42.3978H40.7536L41.2711 43.6303H43.4704L40.236 36.3585ZM39.201 38.8235L39.9773 40.7955V40.9188H38.2954L39.201 38.8235Z" fill="#4D4D4F"/>
<path fill-rule="evenodd" clip-rule="evenodd" d="M0 36.4818H2.97571C5.69257 36.4818 7.24502 37.9608 7.24502 40.056C7.24502 42.1513 5.69257 43.7535 2.97571 43.7535H0V36.4818ZM2.97571 41.9048C4.26947 41.9048 5.04569 41.2885 5.04569 40.056C5.04569 38.9468 4.26947 38.2073 2.97571 38.2073H2.06998V41.9048H2.97571Z" fill="#4D4D4F"/>
<path d="M13.1964 36.4818H11.1265V43.7535H13.1964V36.4818Z" fill="#4D4D4F"/>
<path d="M23.5464 36.4818H17.4657V43.6303H23.5464V42.028H19.5357V40.7955H23.1583V39.1933H19.5357V38.084H23.5464V36.4818Z" fill="#4D4D4F"/>
<path d="M28.4629 38.2073H26.134V36.4818H32.8615V38.2073H30.5328V43.6303H28.4629V38.2073Z" fill="#4D4D4F"/>
<path fill-rule="evenodd" clip-rule="evenodd" d="M46.8342 36.4818H50.4568C51.621 36.4818 52.3974 36.7283 52.9148 37.2213C53.303 37.591 53.5617 38.2073 53.5617 38.9468C53.5617 40.056 52.9148 40.7955 52.0092 41.1653L53.8205 43.6303H51.3623L49.8099 41.4118H48.9042V43.6303H46.8342V36.4818ZM50.3273 39.9328C51.1036 39.9328 51.4917 39.563 51.4917 39.07C51.4917 38.4538 51.1036 38.2073 50.3273 38.2073H48.9042V39.9328H50.3273Z" fill="#4D4D4F"/>
<path d="M56.0198 36.4818L58.866 40.9188V43.6303H61.0655V40.9188L63.9117 36.4818H61.5831L60.0305 39.07L58.3487 36.4818H56.0198Z" fill="#4D4D4F"/>
<path d="M79.6957 36.4818V40.549C79.6957 42.7675 81.1188 43.7535 83.3183 44C85.5176 44 86.9407 43.014 86.9407 40.6723V36.6051H84.7414V40.6723C84.7414 41.6583 84.2239 42.1513 83.3183 42.1513C82.4126 42.1513 81.895 41.535 81.895 40.549V36.4818H79.6957Z" fill="#4D4D4F"/>
<path fill-rule="evenodd" clip-rule="evenodd" d="M90.9513 36.4818H94.1857C96.1264 36.4818 97.2908 37.4678 97.2908 39.07C97.2908 40.7955 95.8677 41.6583 94.0564 41.6583H93.0213V43.7535H90.9513V36.4818ZM94.0564 40.056C94.8326 40.056 95.2208 39.6863 95.2208 39.07C95.2208 38.4538 94.7033 38.084 94.0564 38.084H93.0213V40.056H94.0564Z" fill="#4D4D4F"/>
<path fill-rule="evenodd" clip-rule="evenodd" d="M104.018 36.4818H100.784V43.7535H102.854V41.6583H103.889C105.7 41.6583 107.123 40.7955 107.123 39.07C107.123 37.4678 105.959 36.4818 104.018 36.4818ZM105.053 39.07C105.053 39.6863 104.665 40.056 103.889 40.056H102.854V38.084H103.889C104.536 38.084 105.053 38.4538 105.053 39.07Z" fill="#4D4D4F"/>
<path d="M110.746 36.4818H112.816V41.9048H116.568V43.6303H110.746V36.4818Z" fill="#4D4D4F"/>
<path d="M126.142 36.4818H120.061V43.6303H126.271V42.028H122.131V40.7955H125.753V39.1933H122.131V38.084H126.142V36.4818Z" fill="#4D4D4F"/>
<path d="M130.152 36.4818H132.481L134.292 39.1933L136.104 36.4818H138.303V43.6303H136.233V39.563L134.292 42.3978H134.163L132.222 39.563V43.6303H130.152V36.4818Z" fill="#4D4D4F"/>
<path d="M148.653 36.4818H142.443V43.6303H148.653V42.028H144.513V40.7955H148.265V39.1933H144.513V38.084H148.653V36.4818Z" fill="#4D4D4F"/>
<path d="M152.664 36.4818H154.604L157.709 40.3025V36.4818H159.779V43.6303H157.968L154.734 39.6863V43.6303H152.664V36.4818Z" fill="#4D4D4F"/>
<path d="M163.402 38.2073H165.601V43.6303H167.801V38.2073H170V36.4818H163.402V38.2073Z" fill="#4D4D4F"/>
</svg>
